# xmcd
#
# Track frame offsets:
#   150
#   24652
#   45454
#   64149
#   78366
#   106126
#   124135
#   145435
#   174642
#   197766
#   216810
#   238642
#   256949
#   278433
#   298875
#
# Disc length: 4243 seconds
#
# Revision: 0
# Processed by: cddbd v1.5.1PL2 Copyright (c) Steve Scherf et al.
# Submitted via: GXTranscoder 2.0.1939
#
DISCID=dc10910f
DTITLE=Pur - Just Pur
DYEAR=1900
DGENRE=Pop
TTITLE0=Drachen sollen fliegen
TTITLE1=Hab mich wieder mal an dr betrunken
TTITLE2=Mehr als mich
TTITLE3=Lalelu
TTITLE4=Seiltänzertraum
TTITLE5=Indianer
TTITLE6=Ganz egal
TTITLE7=Abenteuerland
TTITLE8=Wenn du da bist
TTITLE9=Endlich ich
TTITLE10=Kinder sind tabu
TTITLE11=Prinzessin
TTITLE12=Lied für all die vergessenen
TTITLE13=Mein Freund Rüdi
TTITLE14=Weißt du noch
EXTD=
EXTT0=
EXTT1=
EXTT2=
EXTT3=
EXTT4=
EXTT5=
EXTT6=
EXTT7=
EXTT8=
EXTT9=
EXTT10=
EXTT11=
EXTT12=
EXTT13=
EXTT14=
PLAYORDER=
